<svg width="16" height="16" viewBox="0 0 16 16" fill="none" xmlns="http://www.w3.org/2000/svg">
<path d="M6.50091 1.02514C7.58412 1.02415 8.64329 1.34446 9.54444 1.94554C10.4456 2.54662 11.1482 3.40148 11.5634 4.40195C11.9786 5.40243 12.0878 6.50358 11.8771 7.5661C11.6663 8.62862 11.1452 9.60478 10.3796 10.3711C9.61402 11.1374 8.63834 11.6594 7.57601 11.8711C6.51368 12.0828 5.41244 11.9746 4.41158 11.5603C3.41072 11.146 2.55523 10.4442 1.95333 9.54359C1.35142 8.643 1.03015 7.58412 1.03015 6.5009C1.03671 5.05153 1.61505 3.66331 2.63945 2.63797C3.66385 1.61263 5.05154 1.03303 6.50091 1.02514V1.02514ZM6.50091 0C5.21515 0 3.95827 0.381271 2.8892 1.0956C1.82013 1.80993 0.986893 2.82523 0.494855 4.01311C0.00281683 5.201 -0.125923 6.50811 0.124916 7.76917C0.375755 9.03022 0.994906 10.1886 1.90407 11.0977C2.81324 12.0069 3.97159 12.6261 5.23264 12.8769C6.49369 13.1277 7.80081 12.999 8.98869 12.507C10.1766 12.0149 11.1919 11.1817 11.9062 10.1126C12.6205 9.04354 13.0018 7.78666 13.0018 6.5009C13.0018 4.77676 12.3169 3.12323 11.0977 1.90407C9.87858 0.684914 8.22505 0 6.50091 0Z" fill="#000"/>
<path d="M15.8372 15.147L12.1517 11.4365L11.4416 12.1416L15.1271 15.8521C15.1734 15.8988 15.2284 15.9358 15.289 15.9612C15.3497 15.9865 15.4147 15.9997 15.4804 15.9999C15.5461 16.0002 15.6112 15.9875 15.672 15.9625C15.7328 15.9376 15.7881 15.9009 15.8347 15.8546C15.8813 15.8083 15.9184 15.7533 15.9437 15.6927C15.9691 15.6321 15.9823 15.5671 15.9825 15.5014C15.9827 15.4356 15.97 15.3705 15.9451 15.3097C15.9202 15.249 15.8835 15.1937 15.8372 15.147Z" fill="#000"/>
</svg>
